# xmcd
#
# Track frame offsets: 
#        150
#        12567
#        24984
#        37783
#        50582
#        68889
#        87196
#        98218
#        109240
#        123081
#        136922
#        147516
#        158110
#        172353
#        186596
#        199235
#        223098
#
# Disc length: 3007 seconds
#
# Revision: 0
# Processed by: cddbd v1.5.2PL0 Copyright (c) Steve Scherf et al.
# Submitted via: ExactAudioCopy v0.99pb5
#
DISCID=fb0bbd11
DTITLE=HAL Leonard - R&B
DYEAR=2014
DGENRE=R&B
TTITLE0=Cleo's Mood Full
TTITLE1=Cleo's Mood PA
TTITLE2=I Got a Woman Full
TTITLE3=I Got a Woman PA
TTITLE4=Pick Up the Pieces Full
TTITLE5=Pick Up the Pieces PA
TTITLE6=Respect Full
TTITLE7=Respect PA
TTITLE8=Shot Gun Full
TTITLE9=Shot Gun PA
TTITLE10=Soul Finger Full
TTITLE11=Sou Finger PA
TTITLE12=Soul Serenade Full
TTITLE13=Soul Serenade PA
TTITLE14=Unchain My Heart Full
TTITLE15=Unchain My Heart PA
TTITLE16=DataDisc
EXTD=
EXTT0=
EXTT1=
EXTT2=
EXTT3=
EXTT4=
EXTT5=
EXTT6=
EXTT7=
EXTT8=
EXTT9=
EXTT10=
EXTT11=
EXTT12=
EXTT13=
EXTT14=
EXTT15=
EXTT16=
PLAYORDER=
